<svg width="800" height="800" viewBox="0 0 800 800" fill="none" xmlns="http://www.w3.org/2000/svg">
<g clip-path="url(#clip0_28_73)">
<path d="M694.158 407.502C713.725 391.935 726.305 367.942 726.305 341.052C726.305 315.714 715.135 292.949 697.476 277.379C690.758 250.973 680.399 225.625 666.642 201.958C644.653 164.12 613.939 131.001 577.822 106.183C529.082 72.6702 471.972 54.6772 412.672 54.1465C410.821 54.1113 409.034 54.1113 407.179 54.1465C347.874 54.6738 290.773 72.6668 242.033 106.18C241.52 106.532 241.02 106.903 240.507 107.26C242.454 100.133 243.514 92.6438 243.514 84.9072C243.518 38.0889 205.429 0 158.61 0C111.792 0 73.7032 38.0889 73.7032 84.9072C73.7032 111.795 86.2801 135.787 105.845 151.354C69.6063 170.405 44.8226 208.412 44.8226 252.116V341.889C44.8226 360.979 56.8369 377.316 73.7032 383.743V508.074C73.7032 527.803 89.7541 543.852 109.482 543.852H184.62C201.442 563.457 220.785 580.935 242.009 595.521C290.746 629.05 347.889 647.047 407.094 647.559C408.051 647.578 408.989 647.579 409.927 647.579C410.864 647.579 411.802 647.579 412.595 647.563C454.419 647.193 495.91 637.895 533.726 620.564C538.859 629.34 546.882 636.228 556.491 639.891V764.225C556.491 783.952 572.54 800.002 592.268 800.002H690.527C710.254 800.002 726.303 783.952 726.303 764.225V639.891C743.165 633.462 755.176 617.123 755.176 598.032V508.266C755.177 464.56 730.395 426.555 694.158 407.502ZM174.04 230.238C186.495 235.294 199.497 239.918 212.943 244.11C204.998 273.168 200.404 303.601 199.247 334.948H145.509C147.701 298.389 157.433 262.689 174.04 230.238ZM556.735 334.948H503.618C503.263 311.63 502.135 288.816 500.27 266.892C526.478 263.57 551.955 258.815 576.272 252.712C578.688 261.598 580.779 270.7 582.53 279.954C567.871 294.083 558.274 313.412 556.735 334.948ZM243.561 448.96C236.4 422.694 232.225 395.16 231.091 366.758H316.225C316.58 390.058 317.706 412.86 319.57 434.772C293.343 438.082 267.893 442.837 243.561 448.96ZM452.512 534.433C424.409 531.6 395.441 531.6 367.331 534.433C361.985 513.001 357.67 488.977 354.478 463.154C390.971 460.271 428.859 460.271 465.362 463.152C462.173 488.979 457.858 513.001 452.512 534.433ZM344.322 569.701C348.643 583.012 353.311 594.647 358.322 604.563C343.387 597.886 329.083 588.274 315.669 575.863C325.036 573.434 334.609 571.391 344.322 569.701ZM409.927 615.767C409.901 615.767 409.875 615.767 409.85 615.767C403.775 615.685 390.065 604.553 376.479 565.535C398.605 563.651 421.244 563.653 443.364 565.535C429.776 604.556 416.064 615.688 409.99 615.769C409.968 615.767 409.948 615.767 409.927 615.767ZM475.521 569.699C485.24 571.39 494.817 573.434 504.183 575.863C490.769 588.274 476.464 597.886 461.526 604.563C466.537 594.65 471.2 583.009 475.521 569.699ZM527.619 508.263V549.456C513.55 545.155 499.021 541.622 484.164 538.913C489.485 516.917 493.792 492.507 496.997 466.415C509.353 467.989 521.56 469.901 533.529 472.143C529.716 483.501 527.619 495.637 527.619 508.263ZM468.637 431.506C429.982 428.413 389.854 428.413 351.204 431.507C349.451 410.678 348.385 388.973 348.038 366.758H471.805C471.458 388.973 470.39 410.677 468.637 431.506ZM348.038 334.948C348.385 312.724 349.453 291.012 351.208 270.176C370.547 271.745 390.174 272.549 409.928 272.549C429.677 272.549 449.301 271.747 468.637 270.178C470.392 291.014 471.46 312.725 471.806 334.948H348.038ZM409.92 85.9385C415.96 85.9385 429.723 97.0102 443.358 136.159C432.336 137.103 421.182 137.607 409.927 137.607C398.667 137.607 387.509 137.103 376.484 136.159C390.119 97.0102 403.879 85.9402 409.92 85.9385ZM409.927 169.416C424.276 169.416 438.496 168.679 452.507 167.258C457.853 188.688 462.169 212.71 465.362 238.533C447.12 239.99 428.591 240.737 409.928 240.737C391.26 240.737 372.728 239.988 354.483 238.532C357.675 212.708 361.99 188.686 367.337 167.254C381.351 168.679 395.573 169.416 409.927 169.416ZM496.993 235.262C493.789 209.179 489.481 184.774 484.16 162.784C499.157 160.055 513.82 156.511 528.024 152.146C543.418 172.188 556.487 196.091 566.454 222.402C544.225 227.894 520.948 232.203 496.993 235.262ZM475.533 132.003C471.212 118.69 466.542 107.069 461.531 97.1525C476.451 103.828 490.742 113.433 504.149 125.832C494.792 128.26 485.242 130.319 475.533 132.003ZM358.322 97.1542C353.309 107.072 348.636 118.685 344.313 132.002C334.606 130.317 325.06 128.258 315.704 125.831C329.109 113.433 343.401 103.829 358.322 97.1542ZM335.681 162.783C330.36 184.772 326.052 209.177 322.848 235.26C298.896 232.203 275.623 227.894 253.396 222.402C263.364 196.078 276.433 172.175 291.824 152.146C306.027 156.509 320.688 160.054 335.681 162.783ZM319.573 266.89C317.708 288.816 316.578 311.63 316.225 334.948H231.091C232.225 306.536 236.405 278.988 243.571 252.707C267.888 258.812 293.365 263.568 319.573 266.89ZM174.047 471.481C157.438 439.026 147.703 403.323 145.511 366.758H199.249C200.406 398.1 204.997 428.526 212.938 457.574C199.467 461.788 186.466 466.439 174.047 471.481ZM322.846 466.425C326.051 492.513 330.358 516.922 335.679 538.915C320.688 541.649 306.027 545.22 291.829 549.578C276.433 529.527 263.362 505.616 253.397 479.3C275.639 473.792 298.881 469.476 322.846 466.425ZM500.273 434.769C502.135 412.858 503.263 390.058 503.618 366.758H560.479C565.651 382.998 575.589 397.122 588.638 407.502C572.649 415.909 558.905 428.005 548.525 442.658C532.8 439.473 516.654 436.837 500.273 434.769ZM641.398 394.149C612.121 394.149 588.301 370.329 588.301 341.052C588.301 311.774 612.121 287.955 641.398 287.955C670.675 287.955 694.495 311.774 694.495 341.052C694.495 370.329 670.675 394.149 641.398 394.149ZM641.398 256.145C630.783 256.145 620.627 258.12 611.252 261.693C609.931 255.76 608.476 249.896 606.899 244.114C620.346 239.92 633.352 235.295 645.81 230.239C650.402 239.198 654.467 248.391 657.993 257.785C652.624 256.716 647.077 256.145 641.398 256.145ZM629.415 202.527C619.057 206.602 608.308 210.369 597.225 213.823C587.327 187.036 574.449 162.322 559.268 140.91C561.884 139.829 564.489 138.732 567.062 137.592C591.286 155.486 612.512 177.615 629.415 202.527ZM252.791 137.592C255.363 138.732 257.966 139.827 260.58 140.907C245.404 162.309 232.526 187.024 222.626 213.822C211.543 210.368 200.796 206.601 190.438 202.526C207.339 177.616 228.565 155.488 252.791 137.592ZM158.61 31.8105C187.888 31.8105 211.707 55.6298 211.707 84.9072C211.707 114.185 187.888 138.004 158.61 138.004C129.333 138.004 105.514 114.185 105.514 84.9072C105.514 55.6298 129.333 31.8105 158.61 31.8105ZM105.514 508.074V370.753C105.514 361.968 98.3931 354.848 89.6084 354.848C82.4544 354.848 76.6331 349.035 76.6331 341.889V252.116C76.6331 206.917 113.404 170.146 158.604 170.146C163.687 170.146 168.679 170.625 173.571 171.525C166.163 181.258 159.337 191.415 153.211 201.958C127.036 246.988 113.202 298.476 113.202 350.854C113.202 395.684 123.368 439.847 142.698 479.881V512.042H109.482C107.293 512.042 105.514 510.262 105.514 508.074ZM190.439 499.183C200.766 495.12 211.518 491.343 222.623 487.872C232.518 514.657 245.393 539.372 260.57 560.789C257.943 561.873 255.333 562.972 252.768 564.109C228.56 546.223 207.342 524.099 190.439 499.183ZM723.367 598.029C723.367 605.179 717.549 610.996 710.4 610.996C701.615 610.996 694.495 618.116 694.495 626.901V764.223C694.495 766.41 692.715 768.189 690.528 768.189H657.303V646.288C657.303 637.504 650.183 630.383 641.398 630.383C632.613 630.383 625.493 637.504 625.493 646.288V768.191H592.268C590.079 768.191 588.301 766.411 588.301 764.225V626.901C588.301 618.116 581.181 610.996 572.396 610.996C565.245 610.996 559.429 605.178 559.429 598.029V508.263C559.429 463.065 596.2 426.294 641.398 426.294C686.596 426.294 723.367 463.065 723.367 508.263V598.029Z" fill="white"/>
</g>
<defs>
<clipPath id="clip0_28_73">
<rect width="800" height="800" fill="white"/>
</clipPath>
</defs>
</svg>
