<svg width="166" height="165" viewBox="0 0 166 165" fill="none" xmlns="http://www.w3.org/2000/svg">
<path d="M82.7936 46.4133L95.131 44.24C96.0296 44.08 96.9416 44 97.8536 44H97.875C103.367 44 108.568 46.8133 111.292 51.5867C113.036 54.6267 114.391 58.7333 114.391 64.1333C114.391 68.7733 113.178 73.3333 110.872 77.3733L107.343 83.5333C105.67 86.4667 104.624 89.7067 104.334 93.0667C103.662 100.853 101.299 108.4 97.387 115.2L95.0376 119.293C94.4363 120.333 93.3243 120.973 92.119 120.973C90.2603 120.973 88.7523 119.467 88.7523 117.613V111.16C88.7523 107.867 88.1657 104.613 87.019 101.533L86.087 99.0133C85.559 97.6 84.2069 96.6667 82.6936 96.6667C81.1483 96.6667 79.7736 97.64 79.2709 99.1067L78.3363 101.827C77.343 104.707 76.8363 107.747 76.8363 110.8V117.613C76.8363 119.467 75.3283 120.973 73.4696 120.973C72.2643 120.973 71.1524 120.333 70.551 119.293L68.2017 115.2C64.2897 108.4 61.9269 100.853 61.2549 93.0667C60.9643 89.7067 59.919 86.4667 58.2457 83.5333L54.7163 77.3733C52.4096 73.3333 51.1976 68.7733 51.1976 64.1333C51.1976 58.72 52.5577 54.6133 54.307 51.56C57.0337 46.8 62.231 44 67.7136 44H67.735C68.647 44 69.559 44.08 70.4577 44.24L82.7936 46.4133Z" stroke="#f496bf" stroke-width="4" stroke-miterlimit="10" stroke-linecap="round" stroke-linejoin="round"/>
<path d="M80.4762 55.12L73.0136 53.48C69.7349 52.76 66.2308 53.76 64.0615 56.32C63.9055 56.5066 63.7536 56.7067 63.6042 56.9067C62.3309 58.6533 61.7589 60.8133 61.7589 62.9733" stroke="#f496bf" stroke-width="4" stroke-miterlimit="10" stroke-linecap="round" stroke-linejoin="round"/>
<path d="M55.5388 94.6L51.9482 94.64C45.6762 94.2666 43.6202 88.1066 44.1416 82.9866V82.9733L31.7642 82.7866C27.9776 82.7333 24.9389 78.1733 24.9802 72.64L24.9909 70.9333L21.8682 70.8799C18.0802 70.8266 15.0415 66.2933 15.0735 60.7333L5.22953 60.5866C3.43486 60.5466 1.9789 58.3866 2.00023 55.7466C2.02156 53.1333 3.47754 51 5.27087 51C5.28154 51 5.28157 51 5.3029 51L45.9882 51.6" stroke="#f496bf" stroke-width="4" stroke-miterlimit="10" stroke-linecap="round" stroke-linejoin="round"/>
<path d="M15.0736 60.7333H29.6376" stroke="#f496bf" stroke-width="4" stroke-miterlimit="10" stroke-linecap="round" stroke-linejoin="round"/>
<path d="M24.9908 70.9333H45.4629" stroke="#f496bf" stroke-width="4" stroke-miterlimit="10" stroke-linecap="round" stroke-linejoin="round"/>
<path d="M44.1416 82.9733H51.9243" stroke="#f496bf" stroke-width="4" stroke-miterlimit="10" stroke-linecap="round" stroke-linejoin="round"/>
<path d="M110.355 94.6L113.946 94.64C120.218 94.2666 122.275 88.1066 121.754 82.9866V82.9733L134.13 82.7866C137.918 82.7333 140.956 78.1733 140.914 72.64L140.904 70.9333L144.027 70.8799C147.815 70.8266 150.854 66.2933 150.822 60.7333L160.666 60.5866C162.459 60.5466 163.915 58.3866 163.894 55.7466C163.874 53.1333 162.417 51 160.623 51C160.612 51 160.612 51 160.591 51L119.906 51.6" stroke="#f496bf" stroke-width="4" stroke-miterlimit="10" stroke-linecap="round" stroke-linejoin="round"/>
<path d="M150.821 60.7333H136.258" stroke="#f496bf" stroke-width="4" stroke-miterlimit="10" stroke-linecap="round" stroke-linejoin="round"/>
<path d="M140.904 70.9333H120.431" stroke="#f496bf" stroke-width="4" stroke-miterlimit="10" stroke-linecap="round" stroke-linejoin="round"/>
<path d="M121.754 82.9733H113.971" stroke="#f496bf" stroke-width="4" stroke-miterlimit="10" stroke-linecap="round" stroke-linejoin="round"/>
</svg>
