<svg width="165" height="165" viewBox="0 0 165 165" fill="none" xmlns="http://www.w3.org/2000/svg">
<path d="M66.4268 104.264C65.7602 104.833 65.2402 105.577 64.9469 106.444L63.6534 110.215C62.2667 114.224 61.5734 118.435 61.5734 122.676V132.12C61.5734 134.7 59.4802 136.791 56.8935 136.791C55.2268 136.791 53.6801 135.897 52.8534 134.449L49.5867 128.781C44.1601 119.347 40.8802 108.861 39.9469 98.0707C39.5469 93.4121 38.0934 88.9054 35.7734 84.8468L30.8802 76.2867C27.6802 70.6934 26 64.3601 26 57.9201C26 50.4267 27.8801 44.7201 30.3068 40.4801C34.0934 33.8801 41.3068 30 48.9068 30H48.9469C50.2135 30 51.4667 30.1067 52.7201 30.3201L69.8401 33.3468" stroke="#f496bf" stroke-width="4" stroke-miterlimit="10" stroke-linecap="round" stroke-linejoin="round"/>
<path d="M69.8403 33.3467L86.9471 30.3201C88.2004 30.1067 89.4669 30 90.7336 30H90.7604C98.3737 30 105.6 33.8933 109.374 40.5066C111.8 44.7466 113.68 50.4401 113.68 57.9201" stroke="#f496bf" stroke-width="4" stroke-miterlimit="10" stroke-linecap="round" stroke-linejoin="round"/>
<path d="M65.7202 43.3733L55.3604 41.1066C50.8137 40.1066 45.9471 41.4933 42.9471 45.0533C42.7204 45.3067 42.5203 45.5733 42.307 45.8533C40.547 48.28 39.7471 51.2666 39.7471 54.2666" stroke="#f496bf" stroke-width="4" stroke-miterlimit="10" stroke-linecap="round" stroke-linejoin="round"/>
<path d="M139.174 112.361V100.821H129.067C127 100.821 125.08 99.74 123.987 97.9773C116.094 85.2426 111.934 83.2027 108.587 81.3427C106.534 80.2067 104.84 77.4254 103.747 75.252C102.987 73.7147 102.574 72.0507 102.32 70.3467C101.854 67.04 100.307 65.64 98.9202 65.08C97.6669 64.56 96.227 64.72 95.027 65.3467C92.6003 66.5867 91.4535 68.12 90.9202 68.9867C87.9602 73.8573 89.7603 81.7627 96.0403 88.1933C96.5736 88.748 96.8937 89.472 96.8937 90.2414C96.8937 91.8507 95.6002 93.1574 93.9869 93.1574H79.9069C76.5069 93.6667 73.8268 96.2066 73.2668 99.4C72.5202 103.54 75.7602 106.429 75.9202 106.564C75.7069 106.716 73.4135 108.335 73.4002 111.213C73.3735 113.36 74.6135 115.355 76.5869 116.357C75.1202 118.012 74.6669 120.319 75.3869 122.367C76.4402 125.353 79.4137 126.159 79.627 126.221C79.4937 126.373 77.7069 128.484 78.4403 131.131C79.0136 133.224 80.9337 134.771 83.2137 134.977H123.68C124.8 134.977 125.907 134.763 126.92 134.36C127.947 133.957 128.894 133.359 129.72 132.589H139.174V128.041" stroke="#f496bf" stroke-width="4" stroke-miterlimit="10" stroke-linecap="round" stroke-linejoin="round"/>
<path d="M75.6533 106.331H80.9601" stroke="#f496bf" stroke-width="4" stroke-miterlimit="10" stroke-linecap="round" stroke-linejoin="round"/>
<path d="M76.2002 116.044H82.1604" stroke="#f496bf" stroke-width="4" stroke-miterlimit="10" stroke-linecap="round" stroke-linejoin="round"/>
<path d="M79.1736 126.173H84.3202" stroke="#f496bf" stroke-width="4" stroke-miterlimit="10" stroke-linecap="round" stroke-linejoin="round"/>
<path d="M129.067 100.821V112.361" stroke="#f496bf" stroke-width="4" stroke-miterlimit="10" stroke-linecap="round" stroke-linejoin="round"/>
<path d="M129.72 132.589V126.173" stroke="#f496bf" stroke-width="4" stroke-miterlimit="10" stroke-linecap="round" stroke-linejoin="round"/>
</svg>
