<svg width="165" height="165" viewBox="0 0 165 165" fill="none" xmlns="http://www.w3.org/2000/svg">
<path d="M40.3199 87.8669C40.8133 91.1466 43.3866 93.8268 46.68 94.0805C46.72 94.0934 46.7467 94.0934 46.7733 94.0934C47.4533 94.1466 48.1067 94.12 48.7067 94.0533C51.8933 93.707 54.3733 91.1336 54.88 87.9737C56.28 79.2002 57.6666 70.4268 59.0666 61.6404C59.4532 59.1866 58.0667 56.7737 55.7067 55.9466C53.7067 55.2533 51.1733 54.6669 48.2133 54.6533C45.0133 54.6404 41.9199 55.2934 39.4932 56.0404C37.0532 56.8133 35.4799 59.2002 35.8533 61.7336C37.1599 70.4404 39.0133 79.1601 40.3199 87.8669Z" stroke="#f496bf" stroke-width="4" stroke-miterlimit="10" stroke-linecap="round" stroke-linejoin="round"/>
<path d="M63.6533 85.2138C64.1466 88.48 66.7067 91.1737 70.0133 91.4268C70.04 91.4404 70.08 91.4404 70.1067 91.4404C70.7867 91.48 71.4267 91.4669 72.04 91.4002C75.2267 91.0533 77.7067 88.48 78.2133 85.32C79.6 76.5472 80.9999 67.7737 82.3999 58.9866C82.7866 56.5336 81.3867 54.107 79.04 53.2934C77.04 52.6002 74.4933 52.0133 71.5333 52.0002C68.3466 51.9866 65.24 52.6404 62.8266 53.3866C60.3866 54.1601 58.8133 56.5472 59.1866 59.0805C60.4933 67.7866 62.3466 76.4934 63.6533 85.2138Z" stroke="#f496bf" stroke-width="4" stroke-miterlimit="10" stroke-linecap="round" stroke-linejoin="round"/>
<path d="M86.9734 85.2138C87.4667 88.48 90.04 91.1737 93.3467 91.4268C93.3733 91.4404 93.3999 91.4404 93.4266 91.4404C94.1199 91.48 94.76 91.4669 95.3734 91.4002C98.5467 91.0533 101.04 88.48 101.533 85.32C102.933 76.5472 104.333 67.7737 105.72 58.9866C106.107 56.5336 104.72 54.107 102.36 53.2934C100.36 52.6002 97.8266 52.0133 94.8666 52.0002C91.6666 51.9866 88.5733 52.6404 86.1467 53.3866C83.7067 54.1601 82.1333 56.5472 82.52 59.0805C83.8266 67.7866 85.6667 76.4934 86.9734 85.2138Z" stroke="#f496bf" stroke-width="4" stroke-miterlimit="10" stroke-linecap="round" stroke-linejoin="round"/>
<path d="M110.307 88.2533C110.8 91.5335 113.373 94.2138 116.667 94.4799C116.707 94.4799 116.733 94.4799 116.76 94.4799C117.44 94.5335 118.093 94.5199 118.693 94.4533C121.88 94.107 124.36 91.5335 124.867 88.3736C126.267 79.6002 127.653 70.8133 129.053 62.0403C129.44 59.5737 128.053 57.1601 125.693 56.3466C123.693 55.6403 121.147 55.0669 118.2 55.0533C115 55.0403 111.907 55.6799 109.48 56.4403C107.04 57.2002 105.467 59.6002 105.84 62.1335C107.147 70.8403 109 79.5471 110.307 88.2533Z" stroke="#f496bf" stroke-width="4" stroke-miterlimit="10" stroke-linecap="round" stroke-linejoin="round"/>
<path d="M32.92 78.2934C44.68 74.5866 62.16 70.5336 83.5867 70.6404C104.547 70.7472 121.667 74.8133 133.293 78.5336" stroke="#f496bf" stroke-width="4" stroke-miterlimit="10" stroke-linecap="round" stroke-linejoin="round"/>
<path d="M26 95.5737L27.56 101.334C29.1334 107.174 34.44 111.24 40.4934 111.24H123.6C129.093 111.24 134.027 107.88 136.053 102.787L138.907 95.5737" stroke="#f496bf" stroke-width="4" stroke-miterlimit="10" stroke-linecap="round" stroke-linejoin="round"/>
</svg>
