<svg width="800" height="800" viewBox="0 0 800 800" fill="none" xmlns="http://www.w3.org/2000/svg">
<path d="M603.912 244.648C573.694 221.067 543.137 212.93 516.108 213.102C495.433 213.128 476.945 217.33 460.583 221.041C444.208 224.847 429.908 228.042 418.05 227.991C406.214 228.044 391.92 224.847 375.539 221.041C359.176 217.328 340.689 213.128 320.02 213.102C292.984 212.93 262.427 221.055 232.209 244.661C209.772 261.953 193.483 284.623 183.225 310.517C172.927 336.436 168.408 365.498 168.395 396.756C168.42 444.631 178.964 497.884 197.28 554.427C216.192 612.764 232.4 655.659 244.389 686.85C250.367 702.425 255.287 715.081 258.895 725.081C262.508 735.016 264.755 742.441 265.502 746.575C268.448 762.559 275.833 776.153 286.367 785.584C296.864 795.017 310.319 800.023 323.773 799.998C337.672 800.011 351.503 794.741 362.547 785.03C373.637 775.32 381.862 761.303 385.825 744.341C386.981 739.361 387.716 734.128 388.448 728.237C389.701 717.986 390.812 705.858 392.398 693.387C394.717 674.747 398.43 655.248 403.958 642.684C406.633 636.381 409.691 632.089 411.977 630.108C414.389 628.127 415.226 627.809 418.053 627.65C420.273 627.716 421.158 628.047 422.652 628.944C425.156 630.398 429.448 635.591 432.948 644.519C438.339 657.744 441.826 677.48 444.059 696.055C445.209 705.355 446.108 714.417 447.006 722.555C447.95 730.758 448.803 737.839 450.301 744.339C454.272 761.302 462.47 775.319 473.567 785.028C484.611 794.766 498.462 800.009 512.355 799.997C525.809 800.022 539.264 795.016 549.761 785.57C560.303 776.152 567.667 762.558 570.628 746.573C571.38 742.437 573.625 735.014 577.233 725.08C588.098 694.933 610.511 641.839 638.847 554.425C657.17 497.895 667.706 444.63 667.719 396.755C667.719 365.511 663.2 336.434 652.903 310.516C642.627 284.623 626.337 261.942 603.912 244.648ZM600.934 542.141C582.301 599.594 566.434 641.591 554.531 672.57C548.573 688.078 543.619 700.814 539.742 711.541C535.876 722.32 533.036 730.973 531.464 739.231C529.8 747.897 526.478 752.891 523.155 755.889C519.786 758.887 516.192 760.105 512.348 760.158C508.378 760.13 504.064 758.744 499.844 755.084C495.669 751.398 491.483 745.255 489.097 735.216C488.562 732.97 487.869 728.662 487.227 723.392C486.091 714.092 484.948 701.661 483.258 688.345C480.622 668.264 477.014 646.202 468.772 626.889C464.564 617.245 459.114 607.997 450.759 600.441C442.542 592.872 430.625 587.653 418.048 587.811C408.53 587.758 399.217 590.639 391.812 595.487C378.755 604.128 371.481 616.744 366.197 629.664C358.416 649.216 355.002 671.342 352.519 691.186C351.291 701.081 350.378 710.355 349.508 718.123C348.655 725.839 347.758 732.233 347.023 735.219C344.645 745.259 340.45 751.387 336.275 755.061C332.036 758.747 327.742 760.133 323.772 760.133C319.916 760.108 316.334 758.866 312.966 755.892C309.644 752.894 306.32 747.9 304.656 739.248C303.084 730.977 300.244 722.325 296.38 711.545C284.806 679.522 263.161 628.411 235.187 542.145C217.728 488.364 208.225 438.717 208.256 396.761C208.237 369.348 212.266 345.292 220.259 325.25C228.284 305.184 240.036 289.012 256.575 276.2C280.764 257.705 300.244 253.134 320.02 252.962C335.12 252.948 350.511 256.172 366.647 259.898C382.784 263.544 399.628 267.772 418.05 267.837C436.481 267.772 453.323 263.544 469.459 259.898C485.609 256.173 501 252.948 516.106 252.962C535.862 253.134 555.336 257.719 579.544 276.2C596.084 289.012 607.834 305.17 615.861 325.25C623.853 345.291 627.869 369.347 627.869 396.761C627.898 438.727 618.392 488.386 600.934 542.141Z" fill="white"/>
<path d="M720.57 93.175L652.456 75.1281C650.673 74.7313 649.219 73.3047 648.836 71.5078L630.87 3.39531C630.394 1.41406 628.637 0 626.59 0C624.542 0 622.784 1.41406 622.309 3.39531L604.356 71.5078C603.947 73.3047 602.506 74.7313 600.723 75.1281L532.609 93.175C530.615 93.5719 529.201 95.3406 529.201 97.3891C529.201 99.4375 530.615 101.206 532.609 101.589L600.723 119.648C602.506 120.019 603.945 121.472 604.356 123.269L622.309 191.37C622.784 193.364 624.542 194.778 626.59 194.778C628.637 194.778 630.394 193.364 630.87 191.37L648.836 123.269C649.219 121.472 650.673 120.019 652.456 119.648L720.57 101.589C722.565 101.206 723.98 99.4359 723.98 97.3891C723.978 95.3406 722.565 93.5719 720.57 93.175Z" fill="white"/>
<path d="M419.875 399.609L357.673 383.123C356.042 382.767 354.72 381.458 354.37 379.82L337.963 317.625C337.527 315.816 335.922 314.52 334.053 314.52C332.183 314.52 330.578 315.816 330.142 317.625L313.748 379.82C313.38 381.458 312.064 382.767 310.433 383.123L248.23 399.609C246.408 399.967 245.12 401.591 245.12 403.455C245.12 405.331 246.408 406.942 248.23 407.298L310.433 423.784C312.064 424.128 313.38 425.45 313.748 427.087L330.142 489.283C330.578 491.106 332.183 492.387 334.053 492.387C335.922 492.387 337.527 491.106 337.963 489.283L354.37 427.087C354.72 425.45 356.042 424.128 357.673 423.784L419.875 407.298C421.698 406.942 422.986 405.33 422.986 403.455C422.986 401.591 421.698 399.967 419.875 399.609Z" fill="white"/>
<path d="M171.455 204.25L224.198 190.273C225.744 189.969 226.833 188.609 226.833 187.011C226.833 185.439 225.742 184.052 224.198 183.748L171.455 169.772C170.075 169.467 168.952 168.358 168.655 166.972L154.744 114.234C154.375 112.702 153.014 111.606 151.428 111.606C149.844 111.606 148.481 112.702 148.112 114.234L134.214 166.972C133.897 168.359 132.781 169.469 131.4 169.772L78.6562 183.748C77.1094 184.052 76.0219 185.439 76.0219 187.011C76.0219 188.611 77.1109 189.97 78.6562 190.273L131.4 204.25C132.781 204.541 133.897 205.664 134.214 207.05L148.112 259.787C148.481 261.333 149.844 262.416 151.428 262.416C153.014 262.416 154.375 261.331 154.744 259.787L168.655 207.05C168.952 205.664 170.075 204.541 171.455 204.25Z" fill="white"/>
</svg>
