<svg width="165" height="165" viewBox="0 0 165 165" fill="none" xmlns="http://www.w3.org/2000/svg">
<path d="M77.3588 66.6534L87.1988 64.9173C87.9188 64.7907 88.6388 64.7267 89.3721 64.7267H89.3855C93.7589 64.7267 97.9054 66.9666 100.079 70.768C101.479 73.2 102.559 76.4747 102.559 80.776C102.559 84.4774 101.585 88.1147 99.7454 91.328L96.9321 96.2466C95.5988 98.5786 94.7721 101.169 94.5321 103.847C93.9988 110.048 92.1188 116.072 88.9988 121.493L87.1189 124.751C86.6389 125.584 85.7588 126.097 84.7988 126.097C83.3188 126.097 82.1055 124.895 82.1055 123.412V118.268C82.1055 115.647 81.6388 113.047 80.7321 110.589L79.9855 108.591C79.5589 107.46 78.4921 106.711 77.2788 106.711C76.0521 106.711 74.9454 107.492 74.5454 108.659L73.8121 110.824C73.0121 113.129 72.6121 115.548 72.6121 117.985V123.412C72.6121 124.895 71.4121 126.097 69.9321 126.097C68.9721 126.097 68.0788 125.584 67.5988 124.751L65.7321 121.493C62.6121 116.072 60.7189 110.048 60.1855 103.847C59.9589 101.169 59.1189 98.5786 57.7855 96.2466L54.9721 91.328C53.1321 88.1147 52.1721 84.4774 52.1721 80.776C52.1721 76.464 53.2522 73.1853 54.6522 70.7507C56.8255 66.9587 60.9721 64.7267 65.3321 64.7267H65.3588C66.0788 64.7267 66.8122 64.7907 67.5189 64.9173L77.3588 66.6534Z" stroke="#f496bf" stroke-width="4" stroke-miterlimit="10" stroke-linecap="round" stroke-linejoin="round"/>
<path d="M106.812 128.927C109.905 125.531 114.212 120.737 117.025 113.328C118.505 109.443 119.119 106.048 119.399 103.788L110.239 103.129L129.759 77.7281L145.559 105.64L137.492 105.053C137.239 105.803 136.639 107.543 135.545 109.869C129.159 123.599 116.879 133.687 102.279 137.713L93.9587 140.011C95.3721 138.92 96.7853 137.829 98.212 136.739C102.065 133.831 104.892 131.016 106.812 128.927Z" stroke="#f496bf" stroke-width="4" stroke-miterlimit="10" stroke-linecap="round" stroke-linejoin="round"/>
<path d="M92.2387 43.9333C87.7187 43.0547 81.3987 41.8826 73.5987 43.34C69.5187 44.104 66.3054 45.3533 64.2254 46.2906L67.8254 53.28L36.5854 51.024L52.172 23L55.8787 30.188C56.6387 30.012 58.4387 29.6214 60.9987 29.332C76.0387 27.6307 91.0521 32.8573 102.092 43.2173L108.399 49.1267C106.732 48.4854 105.065 47.8441 103.385 47.2027C98.8921 45.4267 95.0254 44.4747 92.2387 43.9333Z" stroke="#f496bf" stroke-width="4" stroke-miterlimit="10" stroke-linecap="round" stroke-linejoin="round"/>
<path d="M27.1453 90.5054C27.932 95.0388 29.092 101.373 33.2254 108.139C35.3854 111.687 37.692 114.248 39.3053 115.855L44.5587 109.999L53.5587 140.011L21.8254 135.397L27.2254 129.381C26.7854 128.724 25.7853 127.18 24.612 124.9C17.6653 111.439 17.2253 95.5508 22.972 81.5454L26.2653 73.5561C26.252 75.3454 26.252 77.1334 26.2387 78.9228C26.1853 83.7508 26.6653 87.7161 27.1453 90.5054Z" stroke="#f496bf" stroke-width="4" stroke-miterlimit="10" stroke-linecap="round" stroke-linejoin="round"/>
</svg>
