<svg width="165" height="165" viewBox="0 0 165 165" fill="none" xmlns="http://www.w3.org/2000/svg">
<path d="M54.5146 65.6267L53.9333 63.5867C52.4573 58.4001 50.5827 53.3467 48.7533 48.2667C47.5987 45.08 47 41.6933 47 38.2667C47 32.2933 48.4973 27.7467 50.428 24.3867C53.4387 19.1201 59.196 16 65.268 16H65.3013C66.3 16 67.3147 16.08 68.3133 16.2667L81.956 18.6801L95.5986 16.2667C96.596 16.08 97.5946 16 98.6093 16H98.6266C104.699 16 110.439 19.0934 113.451 24.36C114.416 26.0534 115.28 28.0268 115.896 30.3468C116.512 32.6401 116.895 35.2667 116.895 38.2667C116.895 41.6933 116.303 45.08 115.149 48.2667C113.255 53.52 111.292 58.7467 109.725 64.1067L109.28 65.6267" stroke="#f496bf" stroke-width="4" stroke-miterlimit="10" stroke-linecap="round" stroke-linejoin="round"/>
<path d="M109.28 65.6267V87.3854H54.5146V65.6267H109.28Z" stroke="#f496bf" stroke-width="4" stroke-miterlimit="10" stroke-linecap="round" stroke-linejoin="round"/>
<path d="M60.1373 87.3855L67.6253 93.0934V130.273C67.6253 133.023 68.8 135.639 70.8533 137.464L81.8974 147.28" stroke="#f496bf" stroke-width="4" stroke-miterlimit="10" stroke-linecap="round" stroke-linejoin="round"/>
<path d="M103.657 87.3855L96.1693 93.0934V130.273C96.1693 133.023 94.9946 135.639 92.94 137.464L81.8973 147.28" stroke="#f496bf" stroke-width="4" stroke-miterlimit="10" stroke-linecap="round" stroke-linejoin="round"/>
<path d="M67.6253 93.0934L81.3187 95.9521C86.2333 96.9788 90.9013 98.9494 95.0653 101.753L96.1693 102.497" stroke="#f496bf" stroke-width="4" stroke-miterlimit="10" stroke-linecap="round" stroke-linejoin="round"/>
<path d="M67.6307 106.868L81.224 109.696C86.5306 110.811 91.5893 112.857 96.164 115.769" stroke="#f496bf" stroke-width="4" stroke-miterlimit="10" stroke-linecap="round" stroke-linejoin="round"/>
<path d="M67.6307 120.377L81.224 123.223C83.6853 123.721 86.0814 124.437 88.4107 125.369C91.1067 126.4 93.7187 127.715 96.164 129.279" stroke="#f496bf" stroke-width="4" stroke-miterlimit="10" stroke-linecap="round" stroke-linejoin="round"/>
<path d="M67.8467 132.34H67.864L81.224 135.119C84.8173 135.867 88.2947 137.065 91.6053 138.645" stroke="#f496bf" stroke-width="4" stroke-miterlimit="10" stroke-linecap="round" stroke-linejoin="round"/>
<path d="M62.8333 72.5507V78.7827H83.492" stroke="#f496bf" stroke-width="4" stroke-miterlimit="10" stroke-linecap="round" stroke-linejoin="round"/>
<path d="M83.492 27.9333L93.424 25.76C97.7866 24.8 102.451 26.1334 105.337 29.5467C105.544 29.7867 105.747 30.0401 105.945 30.3201C107.639 32.6401 108.401 35.5067 108.4 38.3867" stroke="#f496bf" stroke-width="4" stroke-miterlimit="10" stroke-linecap="round" stroke-linejoin="round"/>
</svg>
