<svg width="165" height="165" viewBox="0 0 165 165" fill="none" xmlns="http://www.w3.org/2000/svg">
<path d="M106.04 139.811L117.88 142.103C122.547 143.007 127.493 141.98 131.147 138.943C136.56 134.464 136.96 128.115 136.96 128.115C135.133 129.351 133.48 130.159 131.947 130.608C131.36 130.788 130.04 131.08 128.627 130.946C127.853 130.878 127.133 130.675 126.493 130.406C123.347 129.08 121.48 125.779 121.64 122.364C121.853 117.234 122.72 112.15 124.213 107.234L125.707 102.283C126.853 96.3762 127.773 89.9962 128.307 83.2122C128.693 78.4069 128.867 73.8242 128.867 69.4655C128.867 66.8255 128.653 64.2269 128.24 61.6895C127.587 57.7535 126.107 51.4482 121.64 44.0988C111.413 28.5015 93.5065 20.0228 75.7198 22.3935C52.8531 25.4415 41.8399 44.8709 40.6932 46.9682C37.1199 53.7095 35.1065 61.3855 35.1065 69.4655C35.1065 73.8242 35.2665 78.4069 35.6531 83.2122C36.7731 97.2522 39.4931 109.539 42.5865 119.759C44.5465 126.272 38.5199 132.607 32.0133 130.608C30.4799 130.159 28.8 129.351 27 128.115C27 128.115 27.4133 134.51 32.8799 138.991C36.5599 142.022 41.5199 143.039 46.2133 142.131L59.8799 139.484" stroke="#f496bf" stroke-width="4" stroke-miterlimit="10" stroke-linecap="round" stroke-linejoin="round"/>
<path d="M113.08 97.3348C113.547 95.3068 113.907 93.4482 114.227 91.8175C114.227 91.7882 114.24 91.7575 114.24 91.7268C114.96 87.9735 115.293 84.1455 115.293 80.3161V79.2122C75.5066 78.6975 71.1334 50.4881 71.1334 50.4881C71.1334 50.4881 68.0399 69.7375 49.1199 78.8029V80.3015C49.1199 84.0695 49.4134 87.8228 50.1334 91.5161C50.1467 91.6215 50.1732 91.7122 50.1865 91.8175C51.9199 100.683 53.9333 106.535 57.0933 112.892" stroke="#f496bf" stroke-width="4" stroke-miterlimit="10" stroke-linecap="round" stroke-linejoin="round"/>
<path d="M63.4001 118.41C63.4001 118.41 61.8532 118.386 60.7199 118.507C58.3999 118.759 57.7599 122.323 59.1865 123.87C59.9465 124.699 61.08 125.1 62.2133 125.112L79.3865 125.295" stroke="#f496bf" stroke-width="4" stroke-miterlimit="10" stroke-linecap="round" stroke-linejoin="round"/>
<path d="M63.4001 118.41C63.0001 117.388 62.5865 115.879 63.2532 114.44C63.2932 114.364 63.32 114.29 63.3467 114.226C64.84 111.314 71.2134 111.643 73.9334 111.466C77.8134 111.212 81.92 111.804 85.68 111.449C85.68 111.449 88.1999 111.596 92.5199 110.283C93.1332 110.1 94.0933 109.78 94.5733 108.906C95.0266 108.09 94.9999 106.918 94.5733 106.192C92.9066 103.295 84.5334 106.502 80.2001 103.208C78.9867 102.284 78.9334 101.496 78.9334 101.308C78.9067 99.8362 81.0134 98.8108 81.28 98.6855C82.3467 98.6855 83.9466 98.6842 85.8933 98.6855C94.1866 98.6935 99.0266 98.3282 102.627 98.4149C103.44 98.4349 104.16 98.4668 105.027 98.7855C106.44 99.3055 106.893 99.9188 109.16 102.721C110.787 104.732 112.72 106.496 114.96 107.794C114.973 107.802 114.987 107.81 115 107.818" stroke="#f496bf" stroke-width="4" stroke-miterlimit="10" stroke-linecap="round" stroke-linejoin="round"/>
<path d="M60.8267 125.098C60.6934 125.29 59.2135 126.71 60.2135 129.282C60.4935 129.992 60.9733 130.427 61.32 130.68C62.3466 131.439 63.4001 131.506 65.6801 131.671C69.1601 131.922 68.7866 131.915 69.0533 131.92C72.8666 131.999 76.5335 131.991 78.6135 131.978" stroke="#f496bf" stroke-width="4" stroke-miterlimit="10" stroke-linecap="round" stroke-linejoin="round"/>
<path d="M115.027 133.592C113.333 133.556 110 132.416 107.813 133.266C102.533 135.303 96.3867 136.982 92.9334 137.874C91.2 138.327 89.4 138.551 87.6 138.55L78.28 138.516C77.48 138.498 76.6667 138.494 75.8667 138.474C73.8667 138.44 71.8666 138.4 69.88 138.367C68.0666 138.336 66.6934 137.815 65.9334 136.618C65.2934 135.598 65.1732 133.96 66.0266 132.824C66.4266 132.295 66.9332 132.018 67.2399 131.879" stroke="#f496bf" stroke-width="4" stroke-miterlimit="10" stroke-linecap="round" stroke-linejoin="round"/>
<path d="M63.2266 118.43C69.0666 118.606 75.2532 118.532 81.1065 118.708" stroke="#f496bf" stroke-width="4" stroke-miterlimit="10" stroke-linecap="round" stroke-linejoin="round"/>
</svg>
