<svg width="422" height="242" viewBox="0 0 422 242" fill="none" xmlns="http://www.w3.org/2000/svg">
<path d="M144.53 0.649902H78.6V31.7699H78.55L0.780029 125.48H144.52L144.53 94.3599H66.75L144.53 0.649902Z" fill="#F496BF"/>
<path d="M78.61 0.649902H0.780029V31.7599H78.61V0.649902Z" fill="#F15A38"/>
<path d="M72.65 241.88C33.02 241.88 0.780029 209.67 0.780029 170.07H31.9C31.9 192.51 50.18 210.76 72.65 210.76C95.12 210.76 113.4 192.51 113.4 170.07V140.24H144.52V170.07C144.52 209.67 112.28 241.88 72.65 241.88Z" fill="#F68B1F"/>
<path d="M231.91 28.4299C231.91 44.1499 220.24 56.2099 204.92 56.2099H182.7V0.639893H204.92C220.25 0.639893 231.91 12.7099 231.91 28.4299ZM219.69 28.4299C219.69 18.9099 213.66 12.8699 204.93 12.8699H195.41V43.9899H204.93C213.66 43.9799 219.69 37.9499 219.69 28.4299Z" fill="#422F40"/>
<path d="M253.64 0.639893V56.1999H240.94V0.639893H253.64Z" fill="#422F40"/>
<path d="M303.64 43.9799V56.1999H268.71V0.639893H303.24V12.8599H281.41V22.0699H301.25V34.1399H281.41V43.9799H303.64Z" fill="#422F40"/>
<path d="M372.69 38.7499C372.69 50.9699 363.16 57.3199 352.45 57.3199C344.03 57.3199 336.41 53.5899 333 45.4099L343.95 39.0599C345.22 42.7099 347.6 44.9299 352.44 44.9299C357.68 44.9299 359.98 42.1499 359.98 38.7399C359.98 35.3299 357.68 32.5499 352.44 32.5499H349.82L344.98 25.3299L355.06 12.5499H334.74V0.639893H370.46V10.9599L360.86 23.1799C367.69 25.5699 372.69 31.0499 372.69 38.7499Z" fill="#422F40"/>
<path d="M220.83 136.77V149H182.73V139.16L204 105.66H183.12V93.4399H220.43V103.28L199.16 136.78H220.83V136.77Z" fill="#422F40"/>
<path d="M263.3 140.26H242.66L239.88 148.99H225.99L244.88 93.4299H261.07L279.96 149H266.07L263.3 140.26ZM259.48 128.36L252.97 107.96L246.46 128.36H259.48Z" fill="#422F40"/>
<path d="M329.97 93.4299V149H317.27V126.93H299.8V149H287.1V93.4399H299.8V114.71H317.26V93.4399H329.97V93.4299Z" fill="#422F40"/>
<path d="M388.3 93.4299V149H378.77L357.34 118.84V149H344.64V93.4399H354.17L375.6 123.6V93.4399H388.3V93.4299Z" fill="#422F40"/>
<path d="M217.31 233.05H196.67L193.89 241.78H180L198.89 186.22H215.08L233.97 241.78H220.08L217.31 233.05ZM193.5 177.09C193.5 173.84 196.2 171.14 199.45 171.14C202.7 171.14 205.4 173.84 205.4 177.09C205.4 180.34 202.7 183.04 199.45 183.04C196.2 183.04 193.5 180.34 193.5 177.09ZM213.5 221.14L206.99 200.74L200.48 221.14H213.5ZM208.58 177.09C208.58 173.84 211.28 171.14 214.53 171.14C217.78 171.14 220.48 173.84 220.48 177.09C220.48 180.34 217.78 183.04 214.53 183.04C211.28 183.04 208.58 180.34 208.58 177.09Z" fill="#422F40"/>
<path d="M260.25 223.53H254.22V241.79H241.52V186.23H263.74C274.3 186.23 282.79 194.72 282.79 205.28C282.79 212.11 278.66 218.3 272.55 221.39L284.38 241.79H270.73L260.25 223.53ZM254.22 212.41H263.74C267.23 212.41 270.09 209.31 270.09 205.27C270.09 201.22 267.23 198.13 263.74 198.13H254.22V212.41Z" fill="#422F40"/>
<path d="M330.41 229.56V241.78H292.31V231.94L313.58 198.44H292.7V186.22H330.01V196.06L308.74 229.56H330.41Z" fill="#422F40"/>
<path d="M378.03 198.44H363.74V241.78H351.04V198.44H336.75V186.22H378.03V198.44Z" fill="#422F40"/>
<path d="M421.69 229.56V241.78H386.76V186.22H421.29V198.44H399.46V207.65H419.3V219.72H399.46V229.56H421.69Z" fill="#422F40"/>
</svg>
