<svg width="165" height="165" viewBox="0 0 165 165" fill="none" xmlns="http://www.w3.org/2000/svg">
<path d="M34.6307 92.5973C31.5241 93.7973 29.2974 96.5443 29.0307 99.5307C28.7241 102.784 30.7374 106.104 33.9374 107.744" stroke="#f496bf" stroke-width="4" stroke-miterlimit="10" stroke-linecap="round" stroke-linejoin="round"/>
<path d="M129.924 92.5973C133.031 93.7973 135.244 96.5443 135.524 99.5307C135.831 102.784 133.804 106.104 130.617 107.744" stroke="#f496bf" stroke-width="4" stroke-miterlimit="10" stroke-linecap="round" stroke-linejoin="round"/>
<path d="M83.444 67.3042L78.9773 67.2375C78.1507 67.2239 77.4841 66.5307 77.4974 65.7042L77.5773 61.2375C77.5907 60.411 78.2707 59.7572 79.1107 59.7708L83.5641 59.8375C84.4041 59.8506 85.0573 60.5443 85.044 61.3708L84.9641 65.8375C84.9507 66.664 84.2707 67.3178 83.444 67.3042Z" stroke="#f496bf" stroke-width="4" stroke-miterlimit="10" stroke-linecap="round" stroke-linejoin="round"/>
<path d="M72.8439 56.8906C72.0706 56.4776 71.1906 56.0906 70.2439 55.7443C68.4039 55.0776 66.6973 54.7572 65.2706 54.611C64.0573 54.4906 62.9507 55.2776 62.6574 56.4511C62.244 58.1042 61.8974 60.0776 61.7907 62.3042C61.644 65.264 61.964 67.8375 62.404 69.8906C62.6573 71.1178 63.8039 71.9443 65.0439 71.811C66.2839 71.6776 67.6574 71.4375 69.124 71.0239C70.284 70.7042 71.3507 70.3178 72.324 69.9172" stroke="#f496bf" stroke-width="4" stroke-miterlimit="10" stroke-linecap="round" stroke-linejoin="round"/>
<path d="M90.2307 56.8906C91.004 56.4776 91.8707 56.0906 92.8307 55.7443C94.6707 55.0776 96.3774 54.7572 97.7907 54.611C99.0174 54.4906 100.124 55.2776 100.417 56.4511C100.831 58.1042 101.177 60.0776 101.284 62.3042C101.417 65.264 101.097 67.8375 100.671 69.8906C100.417 71.1178 99.2708 71.9443 98.0174 71.811C96.7908 71.6776 95.4174 71.4375 93.9508 71.0239C92.7908 70.7042 91.7241 70.3178 90.7508 69.9172" stroke="#f496bf" stroke-width="4" stroke-miterlimit="10" stroke-linecap="round" stroke-linejoin="round"/>
<path d="M77.9775 52.9172C72.7242 47.1307 73.1642 38.1708 78.9642 32.9307C83.5909 28.7307 90.7509 29.0906 94.9509 33.7172C98.3109 37.4239 98.0309 43.1572 94.3242 46.5172C91.3509 49.1974 86.7776 48.9708 84.0843 46.011" stroke="#f496bf" stroke-width="4" stroke-miterlimit="10" stroke-linecap="round" stroke-linejoin="round"/>
<path d="M100.737 81.1839C100.737 81.1839 106.604 81.4776 108.657 86.8776" stroke="#f496bf" stroke-width="4" stroke-miterlimit="10" stroke-linecap="round" stroke-linejoin="round"/>
<path d="M62.8842 81.1839C62.8842 81.1839 57.0041 81.4776 54.9641 86.8776" stroke="#f496bf" stroke-width="4" stroke-miterlimit="10" stroke-linecap="round" stroke-linejoin="round"/>
<path d="M100.364 131.478C116.111 125.944 127.097 113.411 127.097 98.8375C127.097 86.2505 118.924 75.1973 106.551 68.8505" stroke="#f496bf" stroke-width="4" stroke-miterlimit="10" stroke-linecap="round" stroke-linejoin="round"/>
<path d="M52.9107 71.864C43.404 78.3973 37.4041 88.064 37.4041 98.8375C37.4041 113.078 47.8974 125.371 63.0574 131.091" stroke="#f496bf" stroke-width="4" stroke-miterlimit="10" stroke-linecap="round" stroke-linejoin="round"/>
<path d="M76.2574 100.504C76.4308 100.237 78.2174 97.6375 81.5107 97.5042C85.1374 97.3572 87.1908 100.331 87.2974 100.504" stroke="#f496bf" stroke-width="4" stroke-miterlimit="10" stroke-linecap="round" stroke-linejoin="round"/>
<path d="M67.0306 91.1178C67.0306 92.264 66.0973 93.1839 64.964 93.1839C63.8173 93.1839 62.884 92.264 62.884 91.1178C62.884 89.9708 63.8173 89.0375 64.964 89.0375C66.0973 89.0375 67.0306 89.9708 67.0306 91.1178Z" stroke="#f496bf" stroke-width="4" stroke-miterlimit="10" stroke-linecap="round" stroke-linejoin="round"/>
<path d="M100.337 91.1178C100.337 92.264 99.404 93.1839 98.2573 93.1839C97.1107 93.1839 96.1907 92.264 96.1907 91.1178C96.1907 89.9708 97.1107 89.0375 98.2573 89.0375C99.404 89.0375 100.337 89.9708 100.337 91.1178Z" stroke="#f496bf" stroke-width="4" stroke-miterlimit="10" stroke-linecap="round" stroke-linejoin="round"/>
<path d="M90.3106 131.744C84.7506 136.451 76.4306 135.771 71.7106 130.211C67.004 124.651 67.684 116.331 73.244 111.611C78.804 106.891 87.124 107.584 91.844 113.144C96.5506 118.691 95.8706 127.024 90.3106 131.744Z" stroke="#f496bf" stroke-width="4" stroke-miterlimit="10" stroke-linecap="round" stroke-linejoin="round"/>
<path d="M84.4707 121.678C84.4707 123.171 83.2707 124.371 81.7773 124.371C80.284 124.371 79.0841 123.171 79.0841 121.678C79.0841 120.184 80.284 118.971 81.7773 118.971C83.2707 118.971 84.4707 120.184 84.4707 121.678Z" stroke="#f496bf" stroke-width="4" stroke-miterlimit="10" stroke-linecap="round" stroke-linejoin="round"/>
</svg>
