<svg width="165" height="165" viewBox="0 0 165 165" fill="none" xmlns="http://www.w3.org/2000/svg">
<path d="M70.0533 129.402C70.0533 129.402 73.52 132.348 71.6533 141.655C71.6533 141.655 93.6 146.632 107.667 137.326" stroke="#f496bf" stroke-width="4" stroke-miterlimit="10" stroke-linecap="round" stroke-linejoin="round"/>
<path d="M39.8799 105.888H45.4533" stroke="#f496bf" stroke-width="4" stroke-miterlimit="10" stroke-linecap="round" stroke-linejoin="round"/>
<path d="M123.72 76.0244C124.627 73.3084 125.333 70.5684 125.76 67.7924C127.067 59.1671 124.613 49.0524 120.2 41.5524C114.88 32.4911 106.08 26.6044 96.0799 23.7818C94.0799 23.2164 68.2134 16.3764 49.96 33.9151C42.32 41.2511 39.1066 49.8898 37.7066 55.4791C37.1733 57.5964 36.9333 59.7738 36.9333 61.9564V62.0244C36.9333 63.4244 37.0667 64.8044 37.2534 66.1791C37.3601 67.0204 37.4133 67.9964 37.3466 69.0751L37.3333 69.1564C37.08 72.7351 36.0666 76.2178 34.3466 79.3684C31.8933 83.8658 29.1333 88.4204 27 92.8591H37.7066L37.5333 98.2284C37.5067 99.2004 37.2666 100.179 36.6799 100.963C36.3866 101.364 36.1334 101.983 36.1867 102.908C36.2401 104.11 37.1199 105.116 38.2799 105.442L39.8799 105.888C38.3866 106.136 37.1733 107.175 36.8 108.542C36.8 108.556 36.7867 108.572 36.7867 108.587C36.4267 109.96 37.2667 111.374 38.5867 111.883C39.2801 112.151 40.0799 112.619 40.5466 113.438C41.4933 115.078 40.9066 117.72 38.7733 119.634C38.5866 119.796 38.4266 120.006 38.3066 120.243C37.1866 122.314 38.4534 124.89 40.7201 125.519C42.7334 126.076 45.5867 126.631 48.8534 126.935C53.5867 127.376 58.1333 126.616 62.2133 124.915" stroke="#f496bf" stroke-width="4" stroke-miterlimit="10" stroke-linecap="round" stroke-linejoin="round"/>
<path d="M136.306 118.959C136.306 121.579 134.92 124.015 132.64 125.408C130.586 126.667 128.2 127.335 125.773 127.335H102.52C100.867 127.335 99.2265 126.668 98.2398 125.383C97.0665 123.86 96.6531 121.532 100.68 118.699H96.8532C94.7732 118.699 92.7999 117.396 92.3599 115.414C92.2665 115.004 92.2398 114.58 92.2798 114.154C92.3864 111.919 95.9599 109.659 96.3199 109.306H92.3332C90.4398 109.306 88.6131 108.158 88.1731 106.367C88.0665 105.944 88.0265 105.506 88.0665 105.063C88.2132 103.544 89.2265 102.204 90.7199 101.579C91.3865 101.275 92.0664 100.972 92.7464 100.67H74.3332C72.0398 100.67 69.8932 99.183 69.4665 96.9844C69.4265 96.7524 69.3999 96.515 69.3865 96.2764C69.3599 95.8217 69.3998 95.3724 69.5065 94.9391C69.9998 92.8231 72.0932 91.4243 74.3199 91.427C84.0799 91.4403 93.8398 91.4524 103.6 91.4657C103.666 91.471 104.4 91.5217 104.893 90.9537C105.24 90.547 105.333 89.979 105.12 89.4764L100.973 86.6364C100.973 86.6364 96.5598 84.455 96.1065 81.227C95.8798 79.5697 97.5999 78.295 99.1865 78.9324L131.453 91.8564C132.493 92.2724 133.44 92.9017 134.2 93.7017C135.56 95.1124 136.306 96.9697 136.306 98.899" stroke="#f496bf" stroke-width="4" stroke-miterlimit="10" stroke-linecap="round" stroke-linejoin="round"/>
<path d="M81.2268 114.827C78.0001 116.927 74.16 118.146 70.0133 118.146C58.64 118.146 49.4268 108.927 49.4268 97.5538C49.4268 86.1804 58.64 76.9604 70.0133 76.9604C74.8533 76.9604 79.2934 78.6244 82.8001 81.4098" stroke="#f496bf" stroke-width="4" stroke-miterlimit="10" stroke-linecap="round" stroke-linejoin="round"/>
<path d="M77.08 106.232C75.2667 107.591 73.0135 108.396 70.5868 108.396C64.6001 108.396 59.7334 103.532 59.7334 97.5538C59.7334 91.5751 64.6001 86.7111 70.5868 86.7111" stroke="" stroke-width="4" stroke-miterlimit="10" stroke-linecap="round" stroke-linejoin="round"/>
</svg>
