<svg width="165" height="165" viewBox="0 0 165 165" fill="none" xmlns="http://www.w3.org/2000/svg">
<path d="M56.8455 78.0613L51.1654 76.8946C48.6721 76.3813 46.0054 77.0959 44.3548 78.9186C44.2361 79.0479 44.1201 79.1866 44.0068 79.3319C43.0388 80.5746 42.6028 82.1079 42.6028 83.6453" stroke="#f496bf" stroke-width="4" stroke-miterlimit="10" stroke-linecap="round" stroke-linejoin="round"/>
<path d="M62.2454 69.276L73.9654 67.3426C74.8187 67.2013 75.684 67.1307 76.552 67.1307H76.572C81.7894 67.1307 86.7307 69.6253 89.32 73.8587C90.976 76.568 92.2627 80.2147 92.2627 85.0053C92.2627 89.128 91.1107 93.18 88.92 96.7586L85.5667 102.236C83.9774 104.835 82.984 107.719 82.708 110.7C82.0694 117.607 79.824 124.319 76.1094 130.356L73.876 133.984C73.3054 134.911 72.248 135.483 71.104 135.483C69.3374 135.483 67.9054 134.144 67.9054 132.493V126.764C67.9054 123.844 67.348 120.948 66.2587 118.211L65.3734 115.984C64.872 114.725 63.5867 113.891 62.1493 113.891C60.6813 113.891 59.3747 114.761 58.8974 116.06L58.0094 118.472C57.0667 121.039 56.584 123.735 56.584 126.448V132.493C56.584 134.144 55.152 135.483 53.3853 135.483C52.2413 135.483 51.184 134.911 50.6134 133.984L48.38 130.356C44.6654 124.319 42.42 117.607 41.7813 110.7C41.5053 107.719 40.512 104.835 38.9227 102.236L35.5694 96.7586C33.3787 93.18 32.2267 89.128 32.2267 85.0053C32.2267 80.2027 33.5187 76.5506 35.1813 73.84C37.7707 69.616 42.708 67.1307 47.9173 67.1307H47.9374C48.8054 67.1307 49.6707 67.2013 50.524 67.3426L62.2454 69.276Z" stroke="#f496bf" stroke-width="4" stroke-miterlimit="10" stroke-linecap="round" stroke-linejoin="round"/>
<path d="M75.0854 55.4093C69.1787 54.9906 64.5281 50.0387 64.5281 44.0387C64.5281 38.016 69.1787 33.0627 75.0854 32.644" stroke="#f496bf" stroke-width="4" stroke-miterlimit="10" stroke-linecap="round" stroke-linejoin="round"/>
<path d="M105.879 51.7813L112.779 32.7879M112.779 32.7879L137.875 51.7866C135.407 52.0106 131.255 52.7973 127.123 55.564C118.184 61.548 116.837 71.852 116.651 73.592C112.143 69.0853 107.617 64.5586 103.111 60.0519H83.5507C78.876 60.0519 75.0801 56.256 75.0801 51.5813V36.472C75.0801 31.796 78.876 28 83.5507 28H105.168C108.535 28 111.432 29.9453 112.779 32.7879Z" stroke="#f496bf" stroke-width="4" stroke-miterlimit="10" stroke-linecap="round" stroke-linejoin="round"/>
<path d="M116.645 73.5867C116.165 75.8107 113.647 137.044 113.647 137.044" stroke="#f496bf" stroke-width="4" stroke-miterlimit="10" stroke-linecap="round" stroke-linejoin="round"/>
<path d="M137.869 51.7813L143.388 134.719" stroke="#f496bf" stroke-width="4" stroke-miterlimit="10" stroke-linecap="round" stroke-linejoin="round"/>
<path d="M64.528 44.0387H22" stroke="#f496bf" stroke-width="4" stroke-miterlimit="10" stroke-linecap="round" stroke-linejoin="round"/>
<path d="M56.2188 40.7159V47.9773" stroke="#f496bf" stroke-width="4" stroke-miterlimit="10" stroke-linecap="round" stroke-linejoin="round"/>
</svg>
