<svg width="165" height="165" viewBox="0 0 165 165" fill="none" xmlns="http://www.w3.org/2000/svg">
<path d="M83.6733 68.0214L76.2347 69.2481C75.6933 69.3374 75.144 69.3827 74.5933 69.3827H74.58C71.2693 69.3827 68.132 67.7987 66.4893 65.112C65.4387 63.392 64.6213 61.0787 64.6213 58.0374C64.6213 55.4214 65.3533 52.8494 66.7427 50.5774L68.8707 47.1013C69.88 45.452 70.5107 43.6213 70.6853 41.7293C71.0907 37.3453 72.516 33.0867 74.8747 29.2547L76.2907 26.9521C76.6533 26.3628 77.324 26 78.0507 26C79.172 26 80.0813 26.8494 80.0813 27.8974V31.5333C80.0813 33.3867 80.4347 35.2253 81.1253 36.9626L81.688 38.3761C82.0067 39.1747 82.8213 39.704 83.7333 39.704C84.6667 39.704 85.4947 39.1507 85.7987 38.328L86.3613 36.796C86.96 35.168 87.2667 33.456 87.2667 31.7346V27.8974C87.2667 26.8494 88.1747 26 89.296 26C90.0227 26 90.6933 26.3628 91.056 26.9521L92.4733 29.2547C94.8307 33.0867 96.256 37.3453 96.6613 41.7293C96.836 43.6213 97.4667 45.452 98.476 47.1013L100.604 50.5774C101.995 52.8494 102.725 55.4214 102.725 58.0374C102.725 61.0854 101.905 63.4026 100.851 65.124C99.2067 67.8053 96.0733 69.3827 92.7667 69.3827H92.7547C92.204 69.3827 91.6547 69.3374 91.112 69.2481L83.6733 68.0214Z" stroke="#f496bf" stroke-width="4" stroke-miterlimit="10" stroke-linecap="round" stroke-linejoin="round"/>
<path d="M59.8106 97.3066C59.8106 97.3066 51.0293 93.6293 46.768 81.3493C44.952 76.116 44.4786 70.4827 45.1973 64.9893C45.924 59.4333 47.932 52.2174 53.2733 47.6921C53.2733 47.6921 58.9666 47.3334 59.2026 55.8654C59.384 62.3627 58.86 69.6667 63.8933 77.5934" stroke="#f496bf" stroke-width="4" stroke-miterlimit="10" stroke-linecap="round" stroke-linejoin="round"/>
<path d="M107.612 97.3066C107.612 97.3066 116.393 93.6293 120.655 81.3493C122.471 76.116 122.944 70.4827 122.225 64.9893C121.499 59.4333 119.491 52.2174 114.149 47.6921C114.149 47.6921 108.457 47.3334 108.22 55.8654C108.035 62.5294 108.591 70.0426 103.129 78.2066" stroke="#f496bf" stroke-width="4" stroke-miterlimit="10" stroke-linecap="round" stroke-linejoin="round"/>
<path d="M66.4774 124.227C70.792 128.301 76.6093 130.88 83.0013 131.023C96.6733 131.329 108.024 120.477 108.331 106.805C108.639 93.1334 97.7854 81.7828 84.1134 81.4748C73.256 81.2321 63.8307 88.0588 60.2787 97.7094" stroke="#f496bf" stroke-width="4" stroke-miterlimit="10" stroke-linecap="round" stroke-linejoin="round"/>
<path d="M94.0081 106.481C93.8774 112.252 89.0947 116.827 83.3227 116.696C77.5521 116.567 72.9774 111.784 73.1081 106.012C73.2374 100.241 78.0201 95.668 83.7921 95.7974C89.5627 95.9267 94.1374 100.709 94.0081 106.481Z" stroke="#f496bf" stroke-width="4" stroke-miterlimit="10" stroke-linecap="round" stroke-linejoin="round"/>
<path d="M60.2827 138.597C62.3187 132.879 64.5401 128.067 66.4454 124.273L66.4827 124.217" stroke="#f496bf" stroke-width="4" stroke-miterlimit="10" stroke-linecap="round" stroke-linejoin="round"/>
<path d="M39 138.597C45.44 117.389 56.0813 103.009 60.264 97.6975" stroke="#f496bf" stroke-width="4" stroke-miterlimit="10" stroke-linecap="round" stroke-linejoin="round"/>
<path d="M104.661 138.597C102.977 133.304 101.164 128.827 99.536 125.199" stroke="#f496bf" stroke-width="4" stroke-miterlimit="10" stroke-linecap="round" stroke-linejoin="round"/>
<path d="M107.493 99.7148C111.657 105.637 120.429 119.295 125.704 138.597" stroke="#f496bf" stroke-width="4" stroke-miterlimit="10" stroke-linecap="round" stroke-linejoin="round"/>
</svg>
