<svg width="165" height="165" viewBox="0 0 165 165" fill="none" xmlns="http://www.w3.org/2000/svg">
<path d="M65.4132 113.341C67.1065 119.293 69.52 125.041 72.6266 130.449L75.9465 136.211C76.7865 137.683 78.3599 138.591 80.0666 138.591C82.6799 138.591 84.8132 136.465 84.8132 133.843V124.744C84.8132 120.107 85.6398 115.507 87.2532 111.161L88.5732 107.624C89.3066 105.625 91.2266 104.299 93.36 104.299C95.5333 104.299 97.4665 105.683 98.1865 107.744L99.4933 111.576C100.893 115.652 101.613 119.932 101.613 124.243V133.843C101.613 136.465 103.747 138.591 106.36 138.591C108.067 138.591 109.627 137.683 110.48 136.211L113.787 130.449C119.307 120.86 122.64 110.201 123.587 99.2319C124 94.4972 125.467 89.9159 127.84 85.7906L132.813 77.0893C136.067 71.3999 137.773 64.9732 137.773 58.4265C137.773 50.7999 135.853 44.9999 133.387 40.6932C129.547 33.9865 122.213 30.0399 114.48 30.0399H114.453C113.16 30.0399 111.88 30.1466 110.613 30.3733L95.96 32.9599C94.1333 33.2799 92.28 33.4399 90.4266 33.4399C88.32 33.4399 86.2266 33.2399 84.16 32.8265L74.9066 30.9599" stroke="#f496bf" stroke-width="4" stroke-miterlimit="10" stroke-linecap="round" stroke-linejoin="round"/>
<path d="M97.3999 43.64L107.92 41.32C112.546 40.3066 117.493 41.7334 120.547 45.3334C120.773 45.6 120.986 45.8666 121.186 46.1599C122.986 48.6266 123.8 51.6667 123.8 54.7067" stroke="#f496bf" stroke-width="4" stroke-miterlimit="10" stroke-linecap="round" stroke-linejoin="round"/>
<path d="M70.1998 79.8746L70.1864 84.1426L41.8131 78.4346L41.8665 46L70.2798 41L70.2531 45.3333L64.2798 49.5333L70.2398 54.3599L70.2265 67.2133" stroke="#f496bf" stroke-width="4" stroke-miterlimit="10" stroke-linecap="round" stroke-linejoin="round"/>
<path d="M41.8666 42.84C41.8666 42.84 58.1332 38.12 64.2799 28" stroke="#f496bf" stroke-width="4" stroke-miterlimit="10" stroke-linecap="round" stroke-linejoin="round"/>
<path d="M41.7999 82.0066C41.7999 82.0066 60.1732 89.6746 63.5066 98.0586" stroke="#f496bf" stroke-width="4" stroke-miterlimit="10" stroke-linecap="round" stroke-linejoin="round"/>
<path d="M27 138.744L27.1733 36.84C27.1733 32.8133 30.4533 29.5466 34.4799 29.5466C38.5199 29.5466 41.8 32.8133 41.8 36.8533V46" stroke="#f496bf" stroke-width="4" stroke-miterlimit="10" stroke-linecap="round" stroke-linejoin="round"/>
<path d="M41.7999 78.4265L41.7065 138.491" stroke="#f496bf" stroke-width="4" stroke-miterlimit="10" stroke-linecap="round" stroke-linejoin="round"/>
<path d="M64.28 49.5334L56.08 51.4133" stroke="#f496bf" stroke-width="4" stroke-miterlimit="10" stroke-linecap="round" stroke-linejoin="round"/>
<path d="M70.1999 79.8746L61.5732 72.8759L70.2266 67.2133" stroke="#f496bf" stroke-width="4" stroke-miterlimit="10" stroke-linecap="round" stroke-linejoin="round"/>
<path d="M61.5733 72.876L48.7733 71.7867" stroke="#f496bf" stroke-width="4" stroke-miterlimit="10" stroke-linecap="round" stroke-linejoin="round"/>
<path d="M82.9466 98.768C82.9466 102.265 80.1066 105.101 76.6132 105.101C73.1066 105.101 70.2799 102.265 70.2799 98.768C70.2799 95.2707 73.1066 92.4347 76.6132 92.4347C80.1066 92.4347 82.9466 95.2707 82.9466 98.768Z" stroke="#f496bf" stroke-width="4" stroke-miterlimit="10" stroke-linecap="round" stroke-linejoin="round"/>
<path d="M101.6 80.68C101.6 86.6453 96.76 91.48 90.8 91.48C84.8267 91.48 80 86.6453 80 80.68C80 74.716 84.8267 69.88 90.8 69.88C96.76 69.88 101.6 74.716 101.6 80.68Z" stroke="#f496bf" stroke-width="4" stroke-miterlimit="10" stroke-linecap="round" stroke-linejoin="round"/>
</svg>
