<svg width="165" height="165" viewBox="0 0 165 165" fill="none" xmlns="http://www.w3.org/2000/svg">
<path d="M143.733 68.0508C137.933 66.9841 132.067 65.8644 126.16 64.7045C120.293 63.5576 114.413 61.2508 108.64 59.304C102.987 57.4106 96.6132 57.5977 91.1065 59.744C90.0132 60.1712 88.9199 60.5977 87.8266 60.9977C84.0399 62.3712 79.6934 62.3712 75.9201 60.9977C74.8267 60.5977 73.7332 60.1712 72.6398 59.744C67.1332 57.5977 60.7465 57.4106 55.1065 59.304C49.3332 61.2508 43.4534 63.5576 37.5867 64.7045C31.6667 65.8644 25.8133 66.9841 20 68.0508C35.8933 71.144 56.7599 73.944 81.2932 73.9977C106.36 74.0378 127.627 71.1841 143.733 68.0508Z" stroke="#f496bf" stroke-width="4" stroke-miterlimit="10" stroke-linecap="round" stroke-linejoin="round"/>
<path d="M28.7065 72.2373L33.28 83.5977C35.5333 89.1977 39.16 93.9977 43.7334 97.6242C48.3067 101.264 53.7733 103.731 59.7466 104.664C67.0666 105.811 74.4534 106.384 81.8667 106.384C89.2667 106.384 96.6667 105.811 104 104.664C115.92 102.798 125.96 94.7977 130.467 83.5977L135.04 72.2373" stroke="#f496bf" stroke-width="4" stroke-miterlimit="10" stroke-linecap="round" stroke-linejoin="round"/>
<path d="M38.3601 73.9977V74.0106L40.3335 76.7174C43.9735 81.6909 48.6535 85.6644 54.0002 88.4106C58.4802 90.7045 63.4002 92.131 68.5335 92.544C69.5735 92.6373 70.6669 92.6773 71.7335 92.6773H83.2536H92.1203C94.1336 92.6773 96.1335 92.5174 98.0802 92.1977C102.973 91.4508 107.64 89.7706 111.84 87.2773C116.467 84.5977 120.547 80.9174 123.747 76.4242L125.493 73.9977" stroke="#f496bf" stroke-width="4" stroke-miterlimit="10" stroke-linecap="round" stroke-linejoin="round"/>
<path d="M83.2534 92.6773V73.9977" stroke="#f496bf" stroke-width="4" stroke-miterlimit="10" stroke-linecap="round" stroke-linejoin="round"/>
<path d="M98.0801 92.1977V73.9977" stroke="#f496bf" stroke-width="4" stroke-miterlimit="10" stroke-linecap="round" stroke-linejoin="round"/>
<path d="M68.5334 92.544V73.7174" stroke="#f496bf" stroke-width="4" stroke-miterlimit="10" stroke-linecap="round" stroke-linejoin="round"/>
<path d="M54 88.4106V72.8773" stroke="#f496bf" stroke-width="4" stroke-miterlimit="10" stroke-linecap="round" stroke-linejoin="round"/>
<path d="M111.84 87.2773V72.6106" stroke="#f496bf" stroke-width="4" stroke-miterlimit="10" stroke-linecap="round" stroke-linejoin="round"/>
</svg>
